<?xml version="1.0" encoding="UTF-8"?>
<svg id="Livello_2" data-name="Livello 2" xmlns="http://www.w3.org/2000/svg" viewBox="0 0 335.3 335.3">
  <defs>
    <style>
      .cls-1, .cls-2 {
        fill: #f1dab1;
      }

      .cls-3 {
        fill: #1c140e;
      }

      .cls-4 {
        fill: #1d140e;
      }

      .cls-5 {
        fill: #2e1d13;
      }

      .cls-2 {
        font-family: MontserratRoman-Medium, Montserrat;
        font-size: 38.68px;
        font-variation-settings: 'wght' 500;
        font-weight: 500;
      }

      .cls-6 {
        fill: #925a30;
      }
    </style>
  </defs>
  <g id="Livello_4" data-name="Livello 4">
    <rect class="cls-3" width="335.3" height="335.3" rx="23" ry="23"/>
    <g>
      <path class="cls-5" d="M216.53,189.19h0c-3.41,5.94-7.48,11.14-12.25,15.41-9.43,8.46-21.54,13.27-36.46,13.02-16.09-.27-28.29-4.96-37.42-12.96-9.7-8.5-15.96-20.74-19.81-35.39-2.21-8.45-3.63-17.69-4.43-27.48-.66-7.98-1.1-10.21-.2-18.82,.03-.27,.06-.53,.09-.8,.21-.22,.41-.44,.62-.66,7.36-7.96,35.34-13.79,60.79-13.92,.13-2.03-.99-3.77-3.43-5.6-.77-.57-1.54-1.14-2.31-1.7-2.42-1.77-4.93-3.6-7.37-5.79-6.29-5.63-9.12-11.52-10.06-16.91h-44.03c-7.51,0-13.6,6.09-13.6,13.6v126.16c0,7.51,6.09,13.6,13.6,13.6H233.85c7.51,0,13.61-6.09,13.61-13.6v-39.93c-6.47,6.44-16.45,11.16-30.94,11.77Zm17.33-111.61h-43.54c1.04,1.03,2.03,2.18,2.95,3.46,3.55,4.97,5.23,11.13,4.75,17.36-.31,3.96-1.44,7.8-3.33,11.34,17.27,2.71,31.56,7.58,34.15,12.29,.22,.39,.44,.78,.69,1.16,.01,.18,.02,.37,.03,.56,.09,2.22,.16,4.21,.21,6.12,.53-.02,1.07-.03,1.62-.03,6.71,0,12.04,1.47,16.09,3.98v-42.63c0-7.51-6.1-13.6-13.61-13.6Zm-3.86,65.79c-.22,.01-.43,.03-.65,.05-.75,9.2-2.28,17.95-4.61,26-.66,2.29-1.39,4.52-2.19,6.69,16.06-2.04,22.92-12.47,22.93-20.83,0-10.1-4.85-12.47-15.48-11.91Z"/>
      <path class="cls-4" d="M216.11,213.64c0,7.63-21.79,13.83-48.68,13.83s-48.69-6.19-48.69-13.83c0-3.43,4.39-6.56,11.65-8.97,9.13,8,21.32,12.7,37.42,12.96,14.92,.25,27.03-4.56,36.46-13.02,7.38,2.42,11.84,5.58,11.84,9.04Z"/>
      <path class="cls-1" d="M257.43,152.68c-.13-7.83-3.32-14.74-9.97-18.85-4.05-2.51-9.39-3.98-16.09-3.98-.54,0-1.08,0-1.62,.03-.05-1.91-.12-3.91-.21-6.12,0-.19-.02-.37-.03-.56-.25-.38-.47-.77-.69-1.16-2.58-4.71-16.88-9.58-34.15-12.29-1.01,1.9-2.24,3.72-3.68,5.43-.15,.18-.31,.36-.46,.53,17.5,2.04,30.19,6.38,30.19,11.26,0,6.88-23.87,12.46-53.32,12.46s-53.32-5.58-53.32-12.46,22.2-11.95,49.89-12.39l1.91-3c.95-1.48,1.47-2.79,1.55-4-25.45,.13-53.43,5.96-60.79,13.92-.2,.22-.41,.44-.62,.66-.04,.27-.07,.53-.09,.8-.9,8.61-.46,10.85,.2,18.82,.8,9.79,2.22,19.04,4.43,27.48,3.84,14.65,10.1,26.89,19.81,35.39,9.13,8,21.32,12.7,37.42,12.96,14.92,.25,27.03-4.56,36.46-13.02,4.76-4.27,8.84-9.46,12.25-15.41h0c14.48-.61,24.46-5.33,30.94-11.77,7.26-7.21,10.11-16.59,9.97-24.75Zm-34.88,23.44c.79-2.17,1.52-4.4,2.19-6.69,2.33-8.05,3.86-16.81,4.61-26,.22-.02,.43-.03,.65-.05,10.63-.56,15.48,1.81,15.48,11.91,0,8.36-6.87,18.79-22.93,20.83Z"/>
      <path class="cls-6" d="M173.18,116.22c4.99-7.82,3.55-15.51-3.99-21.15-3.07-2.29-6.24-4.44-9.1-7.01-5.98-5.35-8.97-11.82-6.93-19.85,2.09-8.27,7.74-13.28,15.7-15.84,1.14-.37,2.35-.5,3.53-.74-.44,1.08-1.52,1.55-2.25,2.36-5.08,5.62-4.92,13.23,.55,18.79,2.83,2.88,6.21,5.1,9.44,7.5,2.27,1.68,4.44,3.45,6.1,5.77,4.9,6.86,4.17,16.42-1.84,23.56-2.9,3.45-6.33,6.12-10.94,6.91-.09-.1-.19-.2-.28-.3Z"/>
      <path class="cls-5" d="M208.27,128.47c0,2.22-8.2,4.16-20.38,5.19-.58,.05-.78-.76-.24-.99,1-.43,1.55-.89,1.55-1.38,0-2.02-9.28-3.65-20.74-3.65s-20.74,1.63-20.74,3.65c0,.55,.69,1.07,1.92,1.53,.56,.21,.38,1.05-.21,1-13.29-.99-22.4-3.01-22.4-5.36,0-3.29,17.95-5.95,40.19-5.99h.43c4.9,0,9.6,.13,13.95,.36,15.56,.84,26.66,3.04,26.66,5.62Z"/>
      <path class="cls-3" d="M167.16,151.23l-21.9,12.64v25.29l21.9,12.64,21.9-12.64v-25.29l-21.9-12.64Zm12.64,32.58l-12.64,7.3-12.64-7.3v-14.59l12.64-7.3,12.64,7.3v14.59Z"/>
      <text class="cls-2" transform="translate(80.53 266.59)"><tspan x="0" y="0">expresso </tspan><tspan x="-17.38" y="38">macchiato</tspan></text>
    </g>
  </g>
</svg>